<?xml version="1.0" encoding="UTF-8" ?>
<!DOCTYPE svg PUBLIC "-//W3C//DTD SVG 1.1//EN" "http://www.w3.org/Graphics/SVG/1.1/DTD/svg11.dtd">
<svg width="250pt" height="250pt" viewBox="0 0 250 250" version="1.1" xmlns="http://www.w3.org/2000/svg">
<path fill="#ff8f00" d=" M 0.00 0.00 L 250.00 0.00 L 250.00 250.00 L 0.00 250.00 L 0.00 0.00 Z" />
<path fill="#ffffff" d=" M 92.41 30.06 C 99.97 26.69 107.60 22.77 116.07 22.54 C 127.80 22.24 139.32 26.50 149.00 32.95 C 158.71 39.39 166.26 48.59 172.23 58.50 C 170.58 59.11 168.89 60.01 167.07 59.60 C 161.69 58.73 156.64 56.52 151.76 54.17 C 145.92 51.23 140.07 48.12 135.13 43.79 C 131.87 41.08 130.32 36.39 125.93 35.13 C 115.21 31.21 103.62 31.31 92.41 30.06 Z" />
<path fill="#ffffff" d=" M 76.68 55.94 C 84.38 50.75 92.60 45.55 102.10 44.78 C 120.07 43.09 138.01 50.81 150.93 63.05 C 153.91 65.78 156.89 68.68 158.51 72.45 C 152.81 74.42 146.76 73.04 141.13 71.54 C 133.79 69.49 126.48 66.92 120.02 62.82 C 116.76 60.84 114.90 56.80 110.92 56.05 C 99.65 53.42 88.07 55.66 76.68 55.94 Z" />
<path fill="#ffffff" d=" M 136.68 102.67 C 149.13 88.50 161.48 74.23 173.81 59.94 C 175.26 61.63 176.72 63.30 178.19 64.96 C 164.96 79.90 152.00 95.08 138.74 110.00 C 138.78 119.04 138.81 128.07 138.76 137.11 C 121.85 137.27 104.94 137.09 88.03 137.20 C 92.21 134.49 95.34 128.72 100.98 129.42 C 111.81 129.47 122.64 129.49 133.47 129.43 C 133.50 122.60 133.41 115.76 133.44 108.93 C 133.24 106.38 135.18 104.48 136.68 102.67 Z" />
<path fill="#ffffff" d=" M 80.28 71.24 C 91.12 65.86 103.79 65.45 115.51 67.68 C 127.03 69.98 137.62 75.87 146.41 83.57 C 143.32 87.08 138.35 87.04 134.05 87.09 C 125.24 87.02 116.29 86.05 107.96 83.06 C 103.73 81.80 100.80 77.34 96.05 77.79 C 84.51 77.92 73.61 82.21 62.57 85.04 C 68.16 80.09 73.44 74.52 80.28 71.24 Z" />
<path fill="#ffffff" d=" M 145.37 106.41 C 157.00 93.22 168.45 79.86 180.04 66.62 C 184.92 70.88 187.77 76.81 190.30 82.64 C 194.33 92.05 196.99 101.96 199.72 111.81 C 192.86 111.80 186.01 111.75 179.15 111.83 C 178.97 120.25 179.15 128.67 179.08 137.09 C 166.78 137.23 154.48 137.21 142.19 137.10 C 142.21 129.03 142.22 120.95 142.15 112.89 C 141.94 110.28 143.80 108.25 145.37 106.41 Z" />
<path fill="#ffffff" d=" M 73.05 91.17 C 93.20 83.50 117.32 87.04 134.36 100.26 C 132.51 101.82 130.50 103.33 128.05 103.76 C 118.79 105.79 109.16 105.40 99.81 104.11 C 96.15 103.62 92.64 102.35 89.51 100.38 C 87.29 98.84 84.48 99.02 81.93 99.38 C 71.16 101.03 61.37 106.10 51.10 109.46 C 57.41 102.32 63.86 94.62 73.05 91.17 Z" />
<path fill="#ffffff" d=" M 63.66 122.69 C 75.29 112.93 91.12 109.37 106.03 110.18 C 114.41 110.84 123.02 112.38 130.37 116.65 C 128.32 118.93 125.88 120.90 122.94 121.88 C 114.03 125.22 104.50 126.90 95.00 127.15 C 91.17 127.38 87.62 125.90 84.01 124.88 C 81.78 124.93 79.65 125.71 77.58 126.46 C 67.55 130.42 58.86 136.93 49.60 142.33 C 53.91 135.54 57.28 127.88 63.66 122.69 Z" />
<path fill="#ffffff" d=" M 48.94 159.87 C 50.55 159.85 52.15 159.84 53.76 159.85 C 53.93 168.53 53.86 177.21 53.81 185.90 C 52.28 185.98 50.74 186.14 49.22 185.86 C 48.48 177.24 48.97 168.52 48.94 159.87 Z" />
<path fill="#ffffff" d=" M 116.98 165.52 C 117.15 163.49 117.33 161.48 117.61 159.47 C 119.02 159.66 120.41 159.91 121.80 160.22 C 122.66 165.12 122.05 170.12 122.20 175.07 C 122.17 178.04 122.62 181.80 119.82 183.75 C 114.88 186.97 108.63 186.26 103.02 186.14 C 99.52 185.94 94.83 185.59 93.27 181.83 C 92.43 178.23 93.04 174.50 93.27 170.87 C 93.31 167.46 97.16 166.09 99.97 165.73 C 105.63 165.27 111.31 165.70 116.98 165.52 Z" />
<path fill="#ffffff" d=" M 125.58 163.82 C 126.73 163.06 127.88 162.27 129.13 161.66 C 131.04 161.66 132.15 163.21 133.07 164.66 C 132.60 165.10 131.66 165.98 131.19 166.42 C 132.40 172.73 131.88 179.26 131.67 185.65 C 130.31 186.36 128.69 186.48 127.35 185.64 C 126.86 179.86 127.37 174.05 127.09 168.26 C 127.38 167.90 127.96 167.17 128.25 166.81 C 127.35 165.82 126.46 164.82 125.58 163.82 Z" />
<path fill="#ffffff" d=" M 59.37 169.35 C 60.53 166.29 64.19 165.59 67.09 165.39 C 71.85 165.28 76.64 165.07 81.38 165.59 C 84.15 165.95 87.58 167.73 87.38 170.96 C 87.57 175.86 87.29 180.77 87.45 185.67 C 86.02 185.89 84.54 186.38 83.10 185.91 C 81.64 180.71 83.54 175.15 82.09 169.99 C 77.84 168.90 73.39 169.34 69.05 169.32 C 67.33 169.56 65.03 169.12 64.03 170.92 C 63.49 175.86 64.24 180.86 63.68 185.81 C 62.22 186.06 60.74 186.00 59.27 185.95 C 59.23 180.42 58.89 174.86 59.37 169.35 Z" />
<path fill="#ffffff" d=" M 153.21 165.45 C 157.69 165.15 163.25 164.81 166.56 168.45 C 168.28 171.64 167.25 175.53 167.52 179.02 C 167.88 181.75 166.45 184.72 163.61 185.37 C 158.17 186.70 152.51 186.20 146.97 186.10 C 143.50 186.00 139.18 185.02 137.61 181.54 C 137.29 179.39 137.02 177.01 137.91 174.96 C 139.58 172.27 142.94 171.31 145.93 171.20 C 151.72 171.00 157.52 171.35 163.30 171.05 C 160.11 168.76 156.10 169.28 152.42 169.16 C 152.57 167.91 152.10 166.37 153.21 165.45 Z" />
<path fill="#ffffff" d=" M 172.96 169.13 C 174.33 166.13 178.00 165.44 180.98 165.34 C 185.70 165.32 190.45 165.04 195.14 165.61 C 197.85 165.96 201.01 167.88 200.86 170.96 C 200.99 175.95 200.89 180.94 200.81 185.93 C 199.29 185.84 197.77 185.83 196.25 185.87 C 196.08 180.91 196.51 175.92 196.04 170.98 C 195.02 169.25 192.80 169.52 191.09 169.33 C 186.69 169.34 182.17 168.92 177.86 170.04 C 176.97 174.80 178.01 179.70 177.35 184.49 C 177.03 186.68 173.21 187.21 172.88 184.80 C 172.61 179.59 172.51 174.32 172.96 169.13 Z" />
<path fill="#ff8f00" d=" M 97.88 170.72 C 104.08 168.55 110.74 169.89 117.15 169.57 C 117.15 173.24 117.15 176.90 117.18 180.56 C 112.69 182.55 107.69 181.79 102.92 181.88 C 101.14 181.96 99.46 181.31 97.84 180.66 C 97.91 177.34 97.91 174.03 97.88 170.72 Z" />
<path fill="#ff8f00" d=" M 144.37 175.70 C 150.48 174.90 156.69 175.57 162.84 175.39 C 162.65 177.34 162.88 179.38 162.17 181.24 C 159.91 182.23 157.37 181.79 154.99 181.90 C 150.48 181.74 145.64 182.64 141.55 180.21 C 142.33 178.69 142.19 175.95 144.37 175.70 Z" />
<path fill="#ffffff" d=" M 51.42 193.83 C 53.14 193.49 55.49 192.12 56.64 194.22 C 59.91 200.06 62.38 206.32 65.29 212.35 C 68.35 206.58 70.75 200.49 73.79 194.72 C 74.68 192.44 78.40 192.31 79.38 194.57 C 82.53 200.36 84.93 206.53 87.83 212.45 C 90.79 206.47 93.23 200.24 96.40 194.38 C 97.60 192.12 100.23 193.20 101.82 194.33 C 98.05 202.09 94.50 209.97 90.66 217.69 C 89.76 220.04 86.14 220.37 85.08 217.99 C 82.00 212.29 79.56 206.27 76.69 200.46 C 74.23 205.44 71.84 210.44 69.46 215.45 C 68.54 217.29 67.47 219.84 64.94 219.46 C 62.41 219.04 61.71 216.24 60.68 214.29 C 57.69 207.42 54.17 200.79 51.42 193.83 Z" />
<path fill="#ffffff" d=" M 136.55 193.60 C 137.98 193.35 139.43 193.26 140.88 193.15 C 141.02 194.95 141.13 196.75 141.25 198.56 C 147.47 199.13 153.79 198.15 159.95 199.41 C 162.59 199.93 165.20 201.94 165.31 204.82 C 165.48 208.15 165.69 211.55 165.07 214.84 C 163.67 218.91 158.71 219.40 155.04 219.40 C 149.44 219.16 143.01 220.45 138.26 216.73 C 135.72 215.00 136.43 211.62 136.29 209.01 C 136.45 203.88 136.01 198.72 136.55 193.60 Z" />
<path fill="#ffffff" d=" M 104.13 201.14 C 108.38 197.86 114.10 198.97 119.08 198.71 C 123.07 198.67 128.16 198.52 130.48 202.44 C 131.18 205.14 130.94 208.03 130.70 210.79 C 129.62 211.49 128.30 211.47 127.07 211.51 C 120.16 211.61 113.24 211.26 106.35 211.67 C 108.70 216.01 113.77 215.42 117.96 215.63 C 117.94 216.53 117.89 218.33 117.87 219.23 C 113.26 219.31 107.87 220.24 104.05 217.01 C 101.70 215.04 102.14 211.76 102.09 209.04 C 102.18 206.35 101.64 202.97 104.13 201.14 Z" />
<path fill="#ffffff" d=" M 172.89 199.86 C 176.63 198.32 180.86 198.47 184.79 199.09 C 184.91 200.26 185.00 201.44 185.06 202.62 C 181.60 202.98 177.85 202.09 174.64 203.73 C 174.73 204.30 174.90 205.43 174.99 206.00 C 180.65 208.05 186.88 205.90 192.63 207.52 C 197.56 208.85 197.71 217.09 192.91 218.66 C 189.06 219.86 184.98 219.24 181.03 219.37 C 177.40 219.27 173.70 219.75 170.13 218.92 C 170.17 217.65 169.55 215.74 171.39 215.56 C 177.52 214.78 183.79 216.05 189.88 215.01 C 192.26 214.77 191.91 211.44 189.73 211.26 C 184.26 210.00 178.36 212.00 173.04 209.90 C 169.02 208.39 168.84 201.42 172.89 199.86 Z" />
<path fill="#ff8f00" d=" M 106.34 207.17 C 106.76 202.25 112.39 202.76 115.99 202.67 C 119.91 202.79 125.92 201.87 126.73 207.13 C 119.94 207.29 113.14 207.24 106.34 207.17 Z" />
<path fill="#ff8f00" d=" M 141.29 203.17 C 146.26 202.72 151.27 202.83 156.24 203.04 C 157.79 203.36 160.31 203.36 160.47 205.42 C 160.74 208.29 160.91 211.29 160.21 214.12 C 158.51 215.60 156.09 215.26 154.00 215.43 C 149.64 215.37 144.90 216.00 141.06 213.46 C 141.20 210.03 141.03 206.59 141.29 203.17 Z" />
</svg>
